<svg width="2048" height="1536" viewBox="0 0 2048 1536" xmlns="http://www.w3.org/2000/svg">
<rect x="0" y="0" width="2047" height="1535" opacity="1" fill="#FFFFFF" stroke="none"/>
<line opacity="0.1" stroke="#000000" stroke-width="1" x1="74" y1="1480" x2="74" y2="54"/>
<line opacity="0.1" stroke="#000000" stroke-width="1" x1="93" y1="1480" x2="93" y2="54"/>
<line opacity="0.1" stroke="#000000" stroke-width="1" x1="113" y1="1480" x2="113" y2="54"/>
<line opacity="0.1" stroke="#000000" stroke-width="1" x1="132" y1="1480" x2="132" y2="54"/>
<line opacity="0.1" stroke="#000000" stroke-width="1" x1="151" y1="1480" x2="151" y2="54"/>
<line opacity="0.1" stroke="#000000" stroke-width="1" x1="171" y1="1480" x2="171" y2="54"/>
<line opacity="0.1" stroke="#000000" stroke-width="1" x1="190" y1="1480" x2="190" y2="54"/>
<line opacity="0.1" stroke="#000000" stroke-width="1" x1="210" y1="1480" x2="210" y2="54"/>
<line opacity="0.1" stroke="#000000" stroke-width="1" x1="229" y1="1480" x2="229" y2="54"/>
<line opacity="0.1" stroke="#000000" stroke-width="1" x1="248" y1="1480" x2="248" y2="54"/>
<line opacity="0.1" stroke="#000000" stroke-width="1" x1="268" y1="1480" x2="268" y2="54"/>
<line opacity="0.1" stroke="#000000" stroke-width="1" x1="287" y1="1480" x2="287" y2="54"/>
<line opacity="0.1" stroke="#000000" stroke-width="1" x1="306" y1="1480" x2="306" y2="54"/>
<line opacity="0.1" stroke="#000000" stroke-width="1" x1="326" y1="1480" x2="326" y2="54"/>
<line opacity="0.1" stroke="#000000" stroke-width="1" x1="345" y1="1480" x2="345" y2="54"/>
<line opacity="0.1" stroke="#000000" stroke-width="1" x1="365" y1="1480" x2="365" y2="54"/>
<line opacity="0.1" stroke="#000000" stroke-width="1" x1="384" y1="1480" x2="384" y2="54"/>
<line opacity="0.1" stroke="#000000" stroke-width="1" x1="403" y1="1480" x2="403" y2="54"/>
<line opacity="0.1" stroke="#000000" stroke-width="1" x1="423" y1="1480" x2="423" y2="54"/>
<line opacity="0.1" stroke="#000000" stroke-width="1" x1="442" y1="1480" x2="442" y2="54"/>
<line opacity="0.1" stroke="#000000" stroke-width="1" x1="461" y1="1480" x2="461" y2="54"/>
<line opacity="0.1" stroke="#000000" stroke-width="1" x1="481" y1="1480" x2="481" y2="54"/>
<line opacity="0.1" stroke="#000000" stroke-width="1" x1="500" y1="1480" x2="500" y2="54"/>
<line opacity="0.1" stroke="#000000" stroke-width="1" x1="520" y1="1480" x2="520" y2="54"/>
<line opacity="0.1" stroke="#000000" stroke-width="1" x1="539" y1="1480" x2="539" y2="54"/>
<line opacity="0.1" stroke="#000000" stroke-width="1" x1="558" y1="1480" x2="558" y2="54"/>
<line opacity="0.1" stroke="#000000" stroke-width="1" x1="578" y1="1480" x2="578" y2="54"/>
<line opacity="0.1" stroke="#000000" stroke-width="1" x1="597" y1="1480" x2="597" y2="54"/>
<line opacity="0.1" stroke="#000000" stroke-width="1" x1="617" y1="1480" x2="617" y2="54"/>
<line opacity="0.1" stroke="#000000" stroke-width="1" x1="636" y1="1480" x2="636" y2="54"/>
<line opacity="0.1" stroke="#000000" stroke-width="1" x1="655" y1="1480" x2="655" y2="54"/>
<line opacity="0.1" stroke="#000000" stroke-width="1" x1="675" y1="1480" x2="675" y2="54"/>
<line opacity="0.1" stroke="#000000" stroke-width="1" x1="694" y1="1480" x2="694" y2="54"/>
<line opacity="0.1" stroke="#000000" stroke-width="1" x1="713" y1="1480" x2="713" y2="54"/>
<line opacity="0.1" stroke="#000000" stroke-width="1" x1="733" y1="1480" x2="733" y2="54"/>
<line opacity="0.1" stroke="#000000" stroke-width="1" x1="752" y1="1480" x2="752" y2="54"/>
<line opacity="0.1" stroke="#000000" stroke-width="1" x1="772" y1="1480" x2="772" y2="54"/>
<line opacity="0.1" stroke="#000000" stroke-width="1" x1="791" y1="1480" x2="791" y2="54"/>
<line opacity="0.1" stroke="#000000" stroke-width="1" x1="810" y1="1480" x2="810" y2="54"/>
<line opacity="0.1" stroke="#000000" stroke-width="1" x1="830" y1="1480" x2="830" y2="54"/>
<line opacity="0.1" stroke="#000000" stroke-width="1" x1="849" y1="1480" x2="849" y2="54"/>
<line opacity="0.1" stroke="#000000" stroke-width="1" x1="868" y1="1480" x2="868" y2="54"/>
<line opacity="0.1" stroke="#000000" stroke-width="1" x1="888" y1="1480" x2="888" y2="54"/>
<line opacity="0.1" stroke="#000000" stroke-width="1" x1="907" y1="1480" x2="907" y2="54"/>
<line opacity="0.1" stroke="#000000" stroke-width="1" x1="927" y1="1480" x2="927" y2="54"/>
<line opacity="0.1" stroke="#000000" stroke-width="1" x1="946" y1="1480" x2="946" y2="54"/>
<line opacity="0.1" stroke="#000000" stroke-width="1" x1="965" y1="1480" x2="965" y2="54"/>
<line opacity="0.1" stroke="#000000" stroke-width="1" x1="985" y1="1480" x2="985" y2="54"/>
<line opacity="0.1" stroke="#000000" stroke-width="1" x1="1004" y1="1480" x2="1004" y2="54"/>
<line opacity="0.1" stroke="#000000" stroke-width="1" x1="1024" y1="1480" x2="1024" y2="54"/>
<line opacity="0.1" stroke="#000000" stroke-width="1" x1="1043" y1="1480" x2="1043" y2="54"/>
<line opacity="0.1" stroke="#000000" stroke-width="1" x1="1062" y1="1480" x2="1062" y2="54"/>
<line opacity="0.1" stroke="#000000" stroke-width="1" x1="1082" y1="1480" x2="1082" y2="54"/>
<line opacity="0.1" stroke="#000000" stroke-width="1" x1="1101" y1="1480" x2="1101" y2="54"/>
<line opacity="0.1" stroke="#000000" stroke-width="1" x1="1120" y1="1480" x2="1120" y2="54"/>
<line opacity="0.1" stroke="#000000" stroke-width="1" x1="1140" y1="1480" x2="1140" y2="54"/>
<line opacity="0.1" stroke="#000000" stroke-width="1" x1="1159" y1="1480" x2="1159" y2="54"/>
<line opacity="0.1" stroke="#000000" stroke-width="1" x1="1179" y1="1480" x2="1179" y2="54"/>
<line opacity="0.1" stroke="#000000" stroke-width="1" x1="1198" y1="1480" x2="1198" y2="54"/>
<line opacity="0.1" stroke="#000000" stroke-width="1" x1="1217" y1="1480" x2="1217" y2="54"/>
<line opacity="0.1" stroke="#000000" stroke-width="1" x1="1237" y1="1480" x2="1237" y2="54"/>
<line opacity="0.1" stroke="#000000" stroke-width="1" x1="1256" y1="1480" x2="1256" y2="54"/>
<line opacity="0.1" stroke="#000000" stroke-width="1" x1="1275" y1="1480" x2="1275" y2="54"/>
<line opacity="0.1" stroke="#000000" stroke-width="1" x1="1295" y1="1480" x2="1295" y2="54"/>
<line opacity="0.1" stroke="#000000" stroke-width="1" x1="1314" y1="1480" x2="1314" y2="54"/>
<line opacity="0.1" stroke="#000000" stroke-width="1" x1="1334" y1="1480" x2="1334" y2="54"/>
<line opacity="0.1" stroke="#000000" stroke-width="1" x1="1353" y1="1480" x2="1353" y2="54"/>
<line opacity="0.1" stroke="#000000" stroke-width="1" x1="1372" y1="1480" x2="1372" y2="54"/>
<line opacity="0.1" stroke="#000000" stroke-width="1" x1="1392" y1="1480" x2="1392" y2="54"/>
<line opacity="0.1" stroke="#000000" stroke-width="1" x1="1411" y1="1480" x2="1411" y2="54"/>
<line opacity="0.1" stroke="#000000" stroke-width="1" x1="1430" y1="1480" x2="1430" y2="54"/>
<line opacity="0.1" stroke="#000000" stroke-width="1" x1="1450" y1="1480" x2="1450" y2="54"/>
<line opacity="0.1" stroke="#000000" stroke-width="1" x1="1469" y1="1480" x2="1469" y2="54"/>
<line opacity="0.1" stroke="#000000" stroke-width="1" x1="1489" y1="1480" x2="1489" y2="54"/>
<line opacity="0.1" stroke="#000000" stroke-width="1" x1="1508" y1="1480" x2="1508" y2="54"/>
<line opacity="0.1" stroke="#000000" stroke-width="1" x1="1527" y1="1480" x2="1527" y2="54"/>
<line opacity="0.1" stroke="#000000" stroke-width="1" x1="1547" y1="1480" x2="1547" y2="54"/>
<line opacity="0.1" stroke="#000000" stroke-width="1" x1="1566" y1="1480" x2="1566" y2="54"/>
<line opacity="0.1" stroke="#000000" stroke-width="1" x1="1586" y1="1480" x2="1586" y2="54"/>
<line opacity="0.1" stroke="#000000" stroke-width="1" x1="1605" y1="1480" x2="1605" y2="54"/>
<line opacity="0.1" stroke="#000000" stroke-width="1" x1="1624" y1="1480" x2="1624" y2="54"/>
<line opacity="0.1" stroke="#000000" stroke-width="1" x1="1644" y1="1480" x2="1644" y2="54"/>
<line opacity="0.1" stroke="#000000" stroke-width="1" x1="1663" y1="1480" x2="1663" y2="54"/>
<line opacity="0.1" stroke="#000000" stroke-width="1" x1="1682" y1="1480" x2="1682" y2="54"/>
<line opacity="0.1" stroke="#000000" stroke-width="1" x1="1702" y1="1480" x2="1702" y2="54"/>
<line opacity="0.1" stroke="#000000" stroke-width="1" x1="1721" y1="1480" x2="1721" y2="54"/>
<line opacity="0.1" stroke="#000000" stroke-width="1" x1="1741" y1="1480" x2="1741" y2="54"/>
<line opacity="0.1" stroke="#000000" stroke-width="1" x1="1760" y1="1480" x2="1760" y2="54"/>
<line opacity="0.1" stroke="#000000" stroke-width="1" x1="1779" y1="1480" x2="1779" y2="54"/>
<line opacity="0.1" stroke="#000000" stroke-width="1" x1="1799" y1="1480" x2="1799" y2="54"/>
<line opacity="0.1" stroke="#000000" stroke-width="1" x1="1818" y1="1480" x2="1818" y2="54"/>
<line opacity="0.1" stroke="#000000" stroke-width="1" x1="1837" y1="1480" x2="1837" y2="54"/>
<line opacity="0.1" stroke="#000000" stroke-width="1" x1="1857" y1="1480" x2="1857" y2="54"/>
<line opacity="0.1" stroke="#000000" stroke-width="1" x1="1876" y1="1480" x2="1876" y2="54"/>
<line opacity="0.1" stroke="#000000" stroke-width="1" x1="1896" y1="1480" x2="1896" y2="54"/>
<line opacity="0.1" stroke="#000000" stroke-width="1" x1="1915" y1="1480" x2="1915" y2="54"/>
<line opacity="0.1" stroke="#000000" stroke-width="1" x1="1934" y1="1480" x2="1934" y2="54"/>
<line opacity="0.1" stroke="#000000" stroke-width="1" x1="1954" y1="1480" x2="1954" y2="54"/>
<line opacity="0.1" stroke="#000000" stroke-width="1" x1="1973" y1="1480" x2="1973" y2="54"/>
<line opacity="0.1" stroke="#000000" stroke-width="1" x1="1993" y1="1480" x2="1993" y2="54"/>
<line opacity="0.1" stroke="#000000" stroke-width="1" x1="55" y1="1457" x2="1993" y2="1457"/>
<line opacity="0.1" stroke="#000000" stroke-width="1" x1="55" y1="1434" x2="1993" y2="1434"/>
<line opacity="0.1" stroke="#000000" stroke-width="1" x1="55" y1="1411" x2="1993" y2="1411"/>
<line opacity="0.1" stroke="#000000" stroke-width="1" x1="55" y1="1388" x2="1993" y2="1388"/>
<line opacity="0.1" stroke="#000000" stroke-width="1" x1="55" y1="1365" x2="1993" y2="1365"/>
<line opacity="0.1" stroke="#000000" stroke-width="1" x1="55" y1="1342" x2="1993" y2="1342"/>
<line opacity="0.1" stroke="#000000" stroke-width="1" x1="55" y1="1319" x2="1993" y2="1319"/>
<line opacity="0.1" stroke="#000000" stroke-width="1" x1="55" y1="1296" x2="1993" y2="1296"/>
<line opacity="0.1" stroke="#000000" stroke-width="1" x1="55" y1="1273" x2="1993" y2="1273"/>
<line opacity="0.1" stroke="#000000" stroke-width="1" x1="55" y1="1250" x2="1993" y2="1250"/>
<line opacity="0.1" stroke="#000000" stroke-width="1" x1="55" y1="1227" x2="1993" y2="1227"/>
<line opacity="0.1" stroke="#000000" stroke-width="1" x1="55" y1="1204" x2="1993" y2="1204"/>
<line opacity="0.1" stroke="#000000" stroke-width="1" x1="55" y1="1181" x2="1993" y2="1181"/>
<line opacity="0.1" stroke="#000000" stroke-width="1" x1="55" y1="1158" x2="1993" y2="1158"/>
<line opacity="0.1" stroke="#000000" stroke-width="1" x1="55" y1="1135" x2="1993" y2="1135"/>
<line opacity="0.1" stroke="#000000" stroke-width="1" x1="55" y1="1112" x2="1993" y2="1112"/>
<line opacity="0.1" stroke="#000000" stroke-width="1" x1="55" y1="1089" x2="1993" y2="1089"/>
<line opacity="0.1" stroke="#000000" stroke-width="1" x1="55" y1="1066" x2="1993" y2="1066"/>
<line opacity="0.1" stroke="#000000" stroke-width="1" x1="55" y1="1043" x2="1993" y2="1043"/>
<line opacity="0.1" stroke="#000000" stroke-width="1" x1="55" y1="1020" x2="1993" y2="1020"/>
<line opacity="0.1" stroke="#000000" stroke-width="1" x1="55" y1="997" x2="1993" y2="997"/>
<line opacity="0.1" stroke="#000000" stroke-width="1" x1="55" y1="974" x2="1993" y2="974"/>
<line opacity="0.1" stroke="#000000" stroke-width="1" x1="55" y1="951" x2="1993" y2="951"/>
<line opacity="0.1" stroke="#000000" stroke-width="1" x1="55" y1="928" x2="1993" y2="928"/>
<line opacity="0.1" stroke="#000000" stroke-width="1" x1="55" y1="905" x2="1993" y2="905"/>
<line opacity="0.1" stroke="#000000" stroke-width="1" x1="55" y1="882" x2="1993" y2="882"/>
<line opacity="0.1" stroke="#000000" stroke-width="1" x1="55" y1="859" x2="1993" y2="859"/>
<line opacity="0.1" stroke="#000000" stroke-width="1" x1="55" y1="836" x2="1993" y2="836"/>
<line opacity="0.1" stroke="#000000" stroke-width="1" x1="55" y1="813" x2="1993" y2="813"/>
<line opacity="0.1" stroke="#000000" stroke-width="1" x1="55" y1="790" x2="1993" y2="790"/>
<line opacity="0.1" stroke="#000000" stroke-width="1" x1="55" y1="767" x2="1993" y2="767"/>
<line opacity="0.1" stroke="#000000" stroke-width="1" x1="55" y1="744" x2="1993" y2="744"/>
<line opacity="0.1" stroke="#000000" stroke-width="1" x1="55" y1="721" x2="1993" y2="721"/>
<line opacity="0.1" stroke="#000000" stroke-width="1" x1="55" y1="698" x2="1993" y2="698"/>
<line opacity="0.1" stroke="#000000" stroke-width="1" x1="55" y1="675" x2="1993" y2="675"/>
<line opacity="0.1" stroke="#000000" stroke-width="1" x1="55" y1="652" x2="1993" y2="652"/>
<line opacity="0.1" stroke="#000000" stroke-width="1" x1="55" y1="629" x2="1993" y2="629"/>
<line opacity="0.1" stroke="#000000" stroke-width="1" x1="55" y1="606" x2="1993" y2="606"/>
<line opacity="0.1" stroke="#000000" stroke-width="1" x1="55" y1="583" x2="1993" y2="583"/>
<line opacity="0.1" stroke="#000000" stroke-width="1" x1="55" y1="560" x2="1993" y2="560"/>
<line opacity="0.1" stroke="#000000" stroke-width="1" x1="55" y1="537" x2="1993" y2="537"/>
<line opacity="0.1" stroke="#000000" stroke-width="1" x1="55" y1="514" x2="1993" y2="514"/>
<line opacity="0.1" stroke="#000000" stroke-width="1" x1="55" y1="491" x2="1993" y2="491"/>
<line opacity="0.1" stroke="#000000" stroke-width="1" x1="55" y1="468" x2="1993" y2="468"/>
<line opacity="0.1" stroke="#000000" stroke-width="1" x1="55" y1="445" x2="1993" y2="445"/>
<line opacity="0.1" stroke="#000000" stroke-width="1" x1="55" y1="422" x2="1993" y2="422"/>
<line opacity="0.1" stroke="#000000" stroke-width="1" x1="55" y1="399" x2="1993" y2="399"/>
<line opacity="0.1" stroke="#000000" stroke-width="1" x1="55" y1="376" x2="1993" y2="376"/>
<line opacity="0.1" stroke="#000000" stroke-width="1" x1="55" y1="353" x2="1993" y2="353"/>
<line opacity="0.1" stroke="#000000" stroke-width="1" x1="55" y1="330" x2="1993" y2="330"/>
<line opacity="0.1" stroke="#000000" stroke-width="1" x1="55" y1="307" x2="1993" y2="307"/>
<line opacity="0.1" stroke="#000000" stroke-width="1" x1="55" y1="284" x2="1993" y2="284"/>
<line opacity="0.1" stroke="#000000" stroke-width="1" x1="55" y1="261" x2="1993" y2="261"/>
<line opacity="0.1" stroke="#000000" stroke-width="1" x1="55" y1="238" x2="1993" y2="238"/>
<line opacity="0.1" stroke="#000000" stroke-width="1" x1="55" y1="215" x2="1993" y2="215"/>
<line opacity="0.1" stroke="#000000" stroke-width="1" x1="55" y1="192" x2="1993" y2="192"/>
<line opacity="0.1" stroke="#000000" stroke-width="1" x1="55" y1="169" x2="1993" y2="169"/>
<line opacity="0.1" stroke="#000000" stroke-width="1" x1="55" y1="146" x2="1993" y2="146"/>
<line opacity="0.1" stroke="#000000" stroke-width="1" x1="55" y1="123" x2="1993" y2="123"/>
<line opacity="0.1" stroke="#000000" stroke-width="1" x1="55" y1="100" x2="1993" y2="100"/>
<line opacity="0.1" stroke="#000000" stroke-width="1" x1="55" y1="77" x2="1993" y2="77"/>
<line opacity="0.1" stroke="#000000" stroke-width="1" x1="55" y1="54" x2="1993" y2="54"/>
<line opacity="0.2" stroke="#000000" stroke-width="1" x1="248" y1="1480" x2="248" y2="54"/>
<line opacity="0.2" stroke="#000000" stroke-width="1" x1="442" y1="1480" x2="442" y2="54"/>
<line opacity="0.2" stroke="#000000" stroke-width="1" x1="636" y1="1480" x2="636" y2="54"/>
<line opacity="0.2" stroke="#000000" stroke-width="1" x1="830" y1="1480" x2="830" y2="54"/>
<line opacity="0.2" stroke="#000000" stroke-width="1" x1="1024" y1="1480" x2="1024" y2="54"/>
<line opacity="0.2" stroke="#000000" stroke-width="1" x1="1217" y1="1480" x2="1217" y2="54"/>
<line opacity="0.2" stroke="#000000" stroke-width="1" x1="1411" y1="1480" x2="1411" y2="54"/>
<line opacity="0.2" stroke="#000000" stroke-width="1" x1="1605" y1="1480" x2="1605" y2="54"/>
<line opacity="0.2" stroke="#000000" stroke-width="1" x1="1799" y1="1480" x2="1799" y2="54"/>
<line opacity="0.2" stroke="#000000" stroke-width="1" x1="1993" y1="1480" x2="1993" y2="54"/>
<line opacity="0.2" stroke="#000000" stroke-width="1" x1="55" y1="1434" x2="1993" y2="1434"/>
<line opacity="0.2" stroke="#000000" stroke-width="1" x1="55" y1="1204" x2="1993" y2="1204"/>
<line opacity="0.2" stroke="#000000" stroke-width="1" x1="55" y1="974" x2="1993" y2="974"/>
<line opacity="0.2" stroke="#000000" stroke-width="1" x1="55" y1="744" x2="1993" y2="744"/>
<line opacity="0.2" stroke="#000000" stroke-width="1" x1="55" y1="514" x2="1993" y2="514"/>
<line opacity="0.2" stroke="#000000" stroke-width="1" x1="55" y1="284" x2="1993" y2="284"/>
<line opacity="0.2" stroke="#000000" stroke-width="1" x1="55" y1="54" x2="1993" y2="54"/>
<polyline fill="none" opacity="1" stroke="#000000" stroke-width="1" points="55,54 1993,54 "/>
<text x="248" y="45" dy="-0.5ex" text-anchor="middle" font-family="sans-serif" font-size="9.67741935483871" opacity="1" fill="#000000">
1.0
</text>
<polyline fill="none" opacity="1" stroke="#000000" stroke-width="1" points="248,49 248,54 "/>
<text x="442" y="45" dy="-0.5ex" text-anchor="middle" font-family="sans-serif" font-size="9.67741935483871" opacity="1" fill="#000000">
2.0
</text>
<polyline fill="none" opacity="1" stroke="#000000" stroke-width="1" points="442,49 442,54 "/>
<text x="636" y="45" dy="-0.5ex" text-anchor="middle" font-family="sans-serif" font-size="9.67741935483871" opacity="1" fill="#000000">
3.0
</text>
<polyline fill="none" opacity="1" stroke="#000000" stroke-width="1" points="636,49 636,54 "/>
<text x="830" y="45" dy="-0.5ex" text-anchor="middle" font-family="sans-serif" font-size="9.67741935483871" opacity="1" fill="#000000">
4.0
</text>
<polyline fill="none" opacity="1" stroke="#000000" stroke-width="1" points="830,49 830,54 "/>
<text x="1024" y="45" dy="-0.5ex" text-anchor="middle" font-family="sans-serif" font-size="9.67741935483871" opacity="1" fill="#000000">
5.0
</text>
<polyline fill="none" opacity="1" stroke="#000000" stroke-width="1" points="1024,49 1024,54 "/>
<text x="1217" y="45" dy="-0.5ex" text-anchor="middle" font-family="sans-serif" font-size="9.67741935483871" opacity="1" fill="#000000">
6.0
</text>
<polyline fill="none" opacity="1" stroke="#000000" stroke-width="1" points="1217,49 1217,54 "/>
<text x="1411" y="45" dy="-0.5ex" text-anchor="middle" font-family="sans-serif" font-size="9.67741935483871" opacity="1" fill="#000000">
7.0
</text>
<polyline fill="none" opacity="1" stroke="#000000" stroke-width="1" points="1411,49 1411,54 "/>
<text x="1605" y="45" dy="-0.5ex" text-anchor="middle" font-family="sans-serif" font-size="9.67741935483871" opacity="1" fill="#000000">
8.0
</text>
<polyline fill="none" opacity="1" stroke="#000000" stroke-width="1" points="1605,49 1605,54 "/>
<text x="1799" y="45" dy="-0.5ex" text-anchor="middle" font-family="sans-serif" font-size="9.67741935483871" opacity="1" fill="#000000">
9.0
</text>
<polyline fill="none" opacity="1" stroke="#000000" stroke-width="1" points="1799,49 1799,54 "/>
<text x="1993" y="45" dy="-0.5ex" text-anchor="middle" font-family="sans-serif" font-size="9.67741935483871" opacity="1" fill="#000000">
10.0
</text>
<polyline fill="none" opacity="1" stroke="#000000" stroke-width="1" points="1993,49 1993,54 "/>
<polyline fill="none" opacity="1" stroke="#000000" stroke-width="1" points="54,55 54,1481 "/>
<text x="45" y="1434" dy="0.5ex" text-anchor="end" font-family="sans-serif" font-size="9.67741935483871" opacity="1" fill="#000000">
0.0
</text>
<polyline fill="none" opacity="1" stroke="#000000" stroke-width="1" points="49,1434 54,1434 "/>
<text x="45" y="1204" dy="0.5ex" text-anchor="end" font-family="sans-serif" font-size="9.67741935483871" opacity="1" fill="#000000">
5.0
</text>
<polyline fill="none" opacity="1" stroke="#000000" stroke-width="1" points="49,1204 54,1204 "/>
<text x="45" y="974" dy="0.5ex" text-anchor="end" font-family="sans-serif" font-size="9.67741935483871" opacity="1" fill="#000000">
10.0
</text>
<polyline fill="none" opacity="1" stroke="#000000" stroke-width="1" points="49,974 54,974 "/>
<text x="45" y="744" dy="0.5ex" text-anchor="end" font-family="sans-serif" font-size="9.67741935483871" opacity="1" fill="#000000">
15.0
</text>
<polyline fill="none" opacity="1" stroke="#000000" stroke-width="1" points="49,744 54,744 "/>
<text x="45" y="514" dy="0.5ex" text-anchor="end" font-family="sans-serif" font-size="9.67741935483871" opacity="1" fill="#000000">
20.0
</text>
<polyline fill="none" opacity="1" stroke="#000000" stroke-width="1" points="49,514 54,514 "/>
<text x="45" y="284" dy="0.5ex" text-anchor="end" font-family="sans-serif" font-size="9.67741935483871" opacity="1" fill="#000000">
25.0
</text>
<polyline fill="none" opacity="1" stroke="#000000" stroke-width="1" points="49,284 54,284 "/>
<polyline fill="none" opacity="1" stroke="#000000" stroke-width="1" points="55,1481 1993,1481 "/>
<text x="248" y="1491" dy="0.76em" text-anchor="middle" font-family="sans-serif" font-size="9.67741935483871" opacity="1" fill="#000000">
1.0
</text>
<polyline fill="none" opacity="1" stroke="#000000" stroke-width="1" points="248,1481 248,1486 "/>
<text x="442" y="1491" dy="0.76em" text-anchor="middle" font-family="sans-serif" font-size="9.67741935483871" opacity="1" fill="#000000">
2.0
</text>
<polyline fill="none" opacity="1" stroke="#000000" stroke-width="1" points="442,1481 442,1486 "/>
<text x="636" y="1491" dy="0.76em" text-anchor="middle" font-family="sans-serif" font-size="9.67741935483871" opacity="1" fill="#000000">
3.0
</text>
<polyline fill="none" opacity="1" stroke="#000000" stroke-width="1" points="636,1481 636,1486 "/>
<text x="830" y="1491" dy="0.76em" text-anchor="middle" font-family="sans-serif" font-size="9.67741935483871" opacity="1" fill="#000000">
4.0
</text>
<polyline fill="none" opacity="1" stroke="#000000" stroke-width="1" points="830,1481 830,1486 "/>
<text x="1024" y="1491" dy="0.76em" text-anchor="middle" font-family="sans-serif" font-size="9.67741935483871" opacity="1" fill="#000000">
5.0
</text>
<polyline fill="none" opacity="1" stroke="#000000" stroke-width="1" points="1024,1481 1024,1486 "/>
<text x="1217" y="1491" dy="0.76em" text-anchor="middle" font-family="sans-serif" font-size="9.67741935483871" opacity="1" fill="#000000">
6.0
</text>
<polyline fill="none" opacity="1" stroke="#000000" stroke-width="1" points="1217,1481 1217,1486 "/>
<text x="1411" y="1491" dy="0.76em" text-anchor="middle" font-family="sans-serif" font-size="9.67741935483871" opacity="1" fill="#000000">
7.0
</text>
<polyline fill="none" opacity="1" stroke="#000000" stroke-width="1" points="1411,1481 1411,1486 "/>
<text x="1605" y="1491" dy="0.76em" text-anchor="middle" font-family="sans-serif" font-size="9.67741935483871" opacity="1" fill="#000000">
8.0
</text>
<polyline fill="none" opacity="1" stroke="#000000" stroke-width="1" points="1605,1481 1605,1486 "/>
<text x="1799" y="1491" dy="0.76em" text-anchor="middle" font-family="sans-serif" font-size="9.67741935483871" opacity="1" fill="#000000">
9.0
</text>
<polyline fill="none" opacity="1" stroke="#000000" stroke-width="1" points="1799,1481 1799,1486 "/>
<text x="1993" y="1491" dy="0.76em" text-anchor="middle" font-family="sans-serif" font-size="9.67741935483871" opacity="1" fill="#000000">
10.0
</text>
<polyline fill="none" opacity="1" stroke="#000000" stroke-width="1" points="1993,1481 1993,1486 "/>
<polyline fill="none" opacity="1" stroke="#000000" stroke-width="1" points="1993,55 1993,1481 "/>
<text x="2021" y="1434" dy="0.5ex" text-anchor="end" font-family="sans-serif" font-size="9.67741935483871" opacity="1" fill="#000000">
0.0
</text>
<polyline fill="none" opacity="1" stroke="#000000" stroke-width="1" points="1993,1434 1998,1434 "/>
<text x="2021" y="1204" dy="0.5ex" text-anchor="end" font-family="sans-serif" font-size="9.67741935483871" opacity="1" fill="#000000">
5.0
</text>
<polyline fill="none" opacity="1" stroke="#000000" stroke-width="1" points="1993,1204 1998,1204 "/>
<text x="2003" y="974" dy="0.5ex" text-anchor="start" font-family="sans-serif" font-size="9.67741935483871" opacity="1" fill="#000000">
10.0
</text>
<polyline fill="none" opacity="1" stroke="#000000" stroke-width="1" points="1993,974 1998,974 "/>
<text x="2003" y="744" dy="0.5ex" text-anchor="start" font-family="sans-serif" font-size="9.67741935483871" opacity="1" fill="#000000">
15.0
</text>
<polyline fill="none" opacity="1" stroke="#000000" stroke-width="1" points="1993,744 1998,744 "/>
<text x="2003" y="514" dy="0.5ex" text-anchor="start" font-family="sans-serif" font-size="9.67741935483871" opacity="1" fill="#000000">
20.0
</text>
<polyline fill="none" opacity="1" stroke="#000000" stroke-width="1" points="1993,514 1998,514 "/>
<text x="2003" y="284" dy="0.5ex" text-anchor="start" font-family="sans-serif" font-size="9.67741935483871" opacity="1" fill="#000000">
25.0
</text>
<polyline fill="none" opacity="1" stroke="#000000" stroke-width="1" points="1993,284 1998,284 "/>
<polyline fill="none" opacity="1" stroke="#0000FF" stroke-width="1" points="55,560 56,560 58,560 60,560 62,560 64,560 66,561 68,561 70,561 72,562 74,563 76,563 78,564 80,565 82,566 84,566 86,567 87,568 89,569 91,571 93,572 95,573 97,574 99,576 101,577 103,579 105,580 107,582 109,583 111,585 113,587 115,589 117,591 118,593 120,595 122,597 124,599 126,601 128,603 130,606 132,608 134,610 136,613 138,615 140,618 142,621 144,623 146,626 148,629 149,632 151,635 153,638 155,641 157,644 159,647 161,650 163,653 165,656 167,660 169,663 171,666 173,670 175,673 177,677 179,681 180,684 182,688 184,692 186,695 188,699 190,703 192,707 194,711 196,715 198,719 200,723 202,727 204,731 206,736 208,740 210,744 211,748 213,753 215,757 217,762 219,766 221,771 223,775 225,780 227,784 229,789 231,794 233,798 235,803 237,808 239,813 241,817 242,822 244,827 246,832 248,837 250,842 252,847 254,852 256,857 258,862 260,867 262,872 264,878 266,883 268,888 270,893 272,898 273,904 275,909 277,914 279,919 281,925 283,930 285,936 287,941 289,946 291,952 293,957 295,963 297,968 299,973 301,979 303,984 305,990 306,995 308,1001 310,1006 312,1012 314,1017 316,1023 318,1029 320,1034 322,1040 324,1045 326,1051 328,1056 330,1062 332,1067 334,1073 336,1078 337,1084 339,1090 341,1095 343,1101 345,1106 347,1112 349,1117 351,1123 353,1128 355,1134 357,1139 359,1145 361,1150 363,1156 365,1161 367,1167 368,1172 370,1178 372,1183 374,1189 376,1194 378,1199 380,1205 382,1210 384,1215 386,1221 388,1226 390,1231 392,1237 394,1242 396,1247 398,1252 399,1258 401,1263 403,1268 405,1273 407,1278 409,1283 411,1288 413,1293 415,1298 417,1303 419,1308 421,1313 423,1318 425,1323 427,1328 429,1333 430,1338 432,1342 434,1347 436,1352 438,1356 440,1361 442,1366 444,1370 446,1375 448,1379 450,1384 452,1388 454,1393 456,1397 458,1402 460,1406 461,1410 463,1414 465,1419 467,1423 469,1427 471,1431 473,1432 475,1428 477,1424 479,1420 481,1416 483,1412 485,1408 487,1404 489,1401 491,1397 492,1393 494,1390 496,1386 498,1382 500,1379 502,1375 504,1372 506,1369 508,1365 510,1362 512,1359 514,1355 516,1352 518,1349 520,1346 522,1343 523,1340 525,1337 527,1334 529,1331 531,1328 533,1326 535,1323 537,1320 539,1317 541,1315 543,1312 545,1310 547,1307 549,1305 551,1303 553,1300 555,1298 556,1296 558,1293 560,1291 562,1289 564,1287 566,1285 568,1283 570,1281 572,1279 574,1278 576,1276 578,1274 580,1272 582,1271 584,1269 586,1268 587,1266 589,1265 591,1263 593,1262 595,1261 597,1259 599,1258 601,1257 603,1256 605,1255 607,1254 609,1253 611,1252 613,1251 615,1250 617,1249 618,1248 620,1248 622,1247 624,1246 626,1246 628,1245 630,1245 632,1244 634,1244 636,1243 638,1243 640,1243 642,1243 644,1242 646,1242 648,1242 649,1242 651,1242 653,1242 655,1242 657,1242 659,1242 661,1242 663,1242 665,1243 667,1243 669,1243 671,1244 673,1244 675,1244 677,1245 679,1245 680,1246 682,1246 684,1247 686,1248 688,1248 690,1249 692,1250 694,1251 696,1251 698,1252 700,1253 702,1254 704,1255 706,1256 708,1257 710,1258 711,1259 713,1260 715,1261 717,1263 719,1264 721,1265 723,1266 725,1268 727,1269 729,1270 731,1272 733,1273 735,1274 737,1276 739,1277 741,1279 742,1280 744,1282 746,1283 748,1285 750,1287 752,1288 754,1290 756,1292 758,1293 760,1295 762,1297 764,1298 766,1300 768,1302 770,1304 772,1306 773,1308 775,1309 777,1311 779,1313 781,1315 783,1317 785,1319 787,1321 789,1323 791,1325 793,1327 795,1329 797,1331 799,1333 801,1335 803,1337 805,1339 806,1341 808,1343 810,1345 812,1347 814,1350 816,1352 818,1354 820,1356 822,1358 824,1360 826,1362 828,1365 830,1367 832,1369 834,1371 836,1373 837,1375 839,1378 841,1380 843,1382 845,1384 847,1386 849,1388 851,1391 853,1393 855,1395 857,1397 859,1399 861,1401 863,1404 865,1406 867,1408 868,1410 870,1412 872,1414 874,1416 876,1419 878,1421 880,1423 882,1425 884,1427 886,1429 888,1431 890,1433 892,1432 894,1430 896,1428 898,1426 899,1424 901,1422 903,1420 905,1418 907,1416 909,1414 911,1412 913,1410 915,1408 917,1406 919,1404 921,1402 923,1400 925,1398 927,1397 929,1395 930,1393 932,1391 934,1389 936,1388 938,1386 940,1384 942,1383 944,1381 946,1379 948,1378 950,1376 952,1374 954,1373 956,1371 958,1370 960,1368 961,1367 963,1365 965,1364 967,1362 969,1361 971,1359 973,1358 975,1357 977,1355 979,1354 981,1353 983,1351 985,1350 987,1349 989,1348 991,1346 992,1345 994,1344 996,1343 998,1342 1000,1341 1002,1340 1004,1339 1006,1338 1008,1337 1010,1336 1012,1335 1014,1334 1016,1333 1018,1332 1020,1331 1022,1331 1024,1330 1025,1329 1027,1328 1029,1328 1031,1327 1033,1326 1035,1326 1037,1325 1039,1325 1041,1324 1043,1323 1045,1323 1047,1322 1049,1322 1051,1322 1053,1321 1055,1321 1056,1320 1058,1320 1060,1320 1062,1320 1064,1319 1066,1319 1068,1319 1070,1319 1072,1319 1074,1318 1076,1318 1078,1318 1080,1318 1082,1318 1084,1318 1086,1318 1087,1318 1089,1318 1091,1318 1093,1318 1095,1319 1097,1319 1099,1319 1101,1319 1103,1319 1105,1320 1107,1320 1109,1320 1111,1321 1113,1321 1115,1321 1117,1322 1118,1322 1120,1323 1122,1323 1124,1324 1126,1324 1128,1325 1130,1325 1132,1326 1134,1326 1136,1327 1138,1328 1140,1328 1142,1329 1144,1330 1146,1330 1148,1331 1149,1332 1151,1333 1153,1333 1155,1334 1157,1335 1159,1336 1161,1337 1163,1338 1165,1338 1167,1339 1169,1340 1171,1341 1173,1342 1175,1343 1177,1344 1179,1345 1180,1346 1182,1347 1184,1348 1186,1349 1188,1350 1190,1352 1192,1353 1194,1354 1196,1355 1198,1356 1200,1357 1202,1358 1204,1360 1206,1361 1208,1362 1210,1363 1211,1365 1213,1366 1215,1367 1217,1368 1219,1370 1221,1371 1223,1372 1225,1373 1227,1375 1229,1376 1231,1377 1233,1379 1235,1380 1237,1381 1239,1383 1241,1384 1242,1386 1244,1387 1246,1388 1248,1390 1250,1391 1252,1393 1254,1394 1256,1395 1258,1397 1260,1398 1262,1400 1264,1401 1266,1402 1268,1404 1270,1405 1272,1407 1274,1408 1275,1410 1277,1411 1279,1412 1281,1414 1283,1415 1285,1417 1287,1418 1289,1420 1291,1421 1293,1423 1295,1424 1297,1425 1299,1427 1301,1428 1303,1430 1305,1431 1306,1432 1308,1433 1310,1432 1312,1430 1314,1429 1316,1428 1318,1426 1320,1425 1322,1423 1324,1422 1326,1421 1328,1419 1330,1418 1332,1417 1334,1415 1336,1414 1337,1413 1339,1411 1341,1410 1343,1409 1345,1407 1347,1406 1349,1405 1351,1404 1353,1402 1355,1401 1357,1400 1359,1399 1361,1397 1363,1396 1365,1395 1367,1394 1368,1393 1370,1392 1372,1390 1374,1389 1376,1388 1378,1387 1380,1386 1382,1385 1384,1384 1386,1383 1388,1382 1390,1381 1392,1380 1394,1379 1396,1378 1398,1377 1399,1376 1401,1375 1403,1374 1405,1373 1407,1372 1409,1371 1411,1370 1413,1370 1415,1369 1417,1368 1419,1367 1421,1366 1423,1366 1425,1365 1427,1364 1429,1363 1430,1363 1432,1362 1434,1361 1436,1361 1438,1360 1440,1360 1442,1359 1444,1358 1446,1358 1448,1357 1450,1357 1452,1356 1454,1356 1456,1355 1458,1355 1460,1354 1461,1354 1463,1353 1465,1353 1467,1353 1469,1352 1471,1352 1473,1352 1475,1351 1477,1351 1479,1351 1481,1351 1483,1350 1485,1350 1487,1350 1489,1350 1491,1350 1492,1350 1494,1349 1496,1349 1498,1349 1500,1349 1502,1349 1504,1349 1506,1349 1508,1349 1510,1349 1512,1349 1514,1349 1516,1349 1518,1349 1520,1350 1522,1350 1524,1350 1525,1350 1527,1350 1529,1350 1531,1351 1533,1351 1535,1351 1537,1351 1539,1352 1541,1352 1543,1352 1545,1353 1547,1353 1549,1353 1551,1354 1553,1354 1555,1355 1556,1355 1558,1355 1560,1356 1562,1356 1564,1357 1566,1357 1568,1358 1570,1358 1572,1359 1574,1360 1576,1360 1578,1361 1580,1361 1582,1362 1584,1363 1586,1363 1587,1364 1589,1365 1591,1365 1593,1366 1595,1367 1597,1367 1599,1368 1601,1369 1603,1370 1605,1371 1607,1371 1609,1372 1611,1373 1613,1374 1615,1375 1617,1375 1618,1376 1620,1377 1622,1378 1624,1379 1626,1380 1628,1381 1630,1382 1632,1383 1634,1383 1636,1384 1638,1385 1640,1386 1642,1387 1644,1388 1646,1389 1648,1390 1649,1391 1651,1392 1653,1393 1655,1394 1657,1395 1659,1396 1661,1397 1663,1398 1665,1399 1667,1400 1669,1402 1671,1403 1673,1404 1675,1405 1677,1406 1679,1407 1680,1408 1682,1409 1684,1410 1686,1411 1688,1412 1690,1413 1692,1414 1694,1416 1696,1417 1698,1418 1700,1419 1702,1420 1704,1421 1706,1422 1708,1423 1710,1424 1711,1425 1713,1427 1715,1428 1717,1429 1719,1430 1721,1431 1723,1432 1725,1433 1727,1433 1729,1432 1731,1431 1733,1429 1735,1428 1737,1427 1739,1426 1741,1425 1742,1424 1744,1423 1746,1422 1748,1421 1750,1420 1752,1419 1754,1418 1756,1417 1758,1416 1760,1415 1762,1414 1764,1413 1766,1412 1768,1411 1770,1410 1772,1409 1774,1408 1775,1407 1777,1406 1779,1405 1781,1404 1783,1403 1785,1402 1787,1401 1789,1400 1791,1399 1793,1398 1795,1398 1797,1397 1799,1396 1801,1395 1803,1394 1805,1393 1806,1392 1808,1392 1810,1391 1812,1390 1814,1389 1816,1388 1818,1388 1820,1387 1822,1386 1824,1385 1826,1385 1828,1384 1830,1383 1832,1383 1834,1382 1836,1381 1837,1381 1839,1380 1841,1379 1843,1379 1845,1378 1847,1378 1849,1377 1851,1376 1853,1376 1855,1375 1857,1375 1859,1374 1861,1374 1863,1373 1865,1373 1867,1372 1868,1372 1870,1372 1872,1371 1874,1371 1876,1370 1878,1370 1880,1370 1882,1369 1884,1369 1886,1369 1888,1368 1890,1368 1892,1368 1894,1368 1896,1367 1898,1367 1899,1367 1901,1367 1903,1367 1905,1366 1907,1366 1909,1366 1911,1366 1913,1366 1915,1366 1917,1366 1919,1366 1921,1366 1923,1366 1925,1365 1927,1365 1929,1365 1930,1365 1932,1366 1934,1366 1936,1366 1938,1366 1940,1366 1942,1366 1944,1366 1946,1366 1948,1366 1950,1366 1952,1367 1954,1367 1956,1367 1958,1367 1960,1367 1961,1368 1963,1368 1965,1368 1967,1369 1969,1369 1971,1369 1973,1369 1975,1370 1977,1370 1979,1371 1981,1371 1983,1371 1985,1372 1987,1372 1989,1373 1991,1373 1993,1373 1993,1374 1993,1374 1993,1375 1993,1375 1993,1376 1993,1376 1993,1377 1993,1377 1993,1378 1993,1379 1993,1379 1993,1380 1993,1380 1993,1381 1993,1382 1993,1382 1993,1383 1993,1383 1993,1384 1993,1385 1993,1385 1993,1386 1993,1387 1993,1388 1993,1388 1993,1389 1993,1390 1993,1390 1993,1391 1993,1392 1993,1393 1993,1393 1993,1394 1993,1395 1993,1396 1993,1397 1993,1397 1993,1398 1993,1399 1993,1400 1993,1401 1993,1401 1993,1402 1993,1403 1993,1404 1993,1405 1993,1406 1993,1407 1993,1407 1993,1408 1993,1409 1993,1410 1993,1411 1993,1412 1993,1413 1993,1414 1993,1414 1993,1415 1993,1416 1993,1417 1993,1418 1993,1419 1993,1420 1993,1421 1993,1422 1993,1423 1993,1424 1993,1424 1993,1425 1993,1426 1993,1427 1993,1428 1993,1429 1993,1430 1993,1431 1993,1432 1993,1433 1993,1433 1993,1432 1993,1432 1993,1431 1993,1430 1993,1429 1993,1428 1993,1427 1993,1426 1993,1425 1993,1424 1993,1424 1993,1423 1993,1422 1993,1421 1993,1420 1993,1419 1993,1418 1993,1417 1993,1417 1993,1416 1993,1415 1993,1414 1993,1413 1993,1412 1993,1412 1993,1411 1993,1410 1993,1409 1993,1408 1993,1407 1993,1407 1993,1406 1993,1405 1993,1404 1993,1404 1993,1403 1993,1402 1993,1401 1993,1401 1993,1400 1993,1399 1993,1399 1993,1398 1993,1397 1993,1396 1993,1396 1993,1395 1993,1394 1993,1394 1993,1393 1993,1393 1993,1392 1993,1391 1993,1391 1993,1390 1993,1390 1993,1389 1993,1388 1993,1388 1993,1387 1993,1387 1993,1386 1993,1386 1993,1385 1993,1385 1993,1384 1993,1384 1993,1383 1993,1383 1993,1383 1993,1382 1993,1382 1993,1381 1993,1381 1993,1381 1993,1380 1993,1380 1993,1380 1993,1379 1993,1379 1993,1379 1993,1378 1993,1378 1993,1378 1993,1378 1993,1377 1993,1377 1993,1377 1993,1377 1993,1377 1993,1376 1993,1376 1993,1376 1993,1376 1993,1376 1993,1376 1993,1376 1993,1375 1993,1375 1993,1375 1993,1375 1993,1375 1993,1375 1993,1375 1993,1375 1993,1375 1993,1375 1993,1375 1993,1375 1993,1375 1993,1375 1993,1375 1993,1376 1993,1376 1993,1376 1993,1376 1993,1376 1993,1376 1993,1376 1993,1377 1993,1377 1993,1377 1993,1377 1993,1377 1993,1378 1993,1378 1993,1378 1993,1378 1993,1379 1993,1379 1993,1379 1993,1380 1993,1380 1993,1380 1993,1381 1993,1381 1993,1381 1993,1382 1993,1382 1993,1383 1993,1383 1993,1383 1993,1384 1993,1384 1993,1385 1993,1385 1993,1386 1993,1386 1993,1387 1993,1387 1993,1388 1993,1388 1993,1389 1993,1389 1993,1390 1993,1390 1993,1391 1993,1391 1993,1392 1993,1393 1993,1393 1993,1394 1993,1394 1993,1395 1993,1396 1993,1396 1993,1397 1993,1398 1993,1398 1993,1399 1993,1400 1993,1400 1993,1401 1993,1402 1993,1402 1993,1403 1993,1404 1993,1404 1993,1405 1993,1406 1993,1407 1993,1407 1993,1408 1993,1409 1993,1410 1993,1410 1993,1411 1993,1412 1993,1413 1993,1413 1993,1414 1993,1415 1993,1416 1993,1416 1993,1417 1993,1418 1993,1419 1993,1420 1993,1420 1993,1421 1993,1422 1993,1423 1993,1424 1993,1424 1993,1425 1993,1426 1993,1427 1993,1428 1993,1428 1993,1429 1993,1430 1993,1431 1993,1432 1993,1432 1993,1433 1993,1433 1993,1432 1993,1431 1993,1431 1993,1430 1993,1429 1993,1428 1993,1428 1993,1427 1993,1426 1993,1425 1993,1424 1993,1424 1993,1423 1993,1422 1993,1421 1993,1421 1993,1420 1993,1419 1993,1418 1993,1417 1993,1417 1993,1416 1993,1415 1993,1415 1993,1414 1993,1413 1993,1412 1993,1412 1993,1411 1993,1410 1993,1410 1993,1409 1993,1408 1993,1407 1993,1407 1993,1406 1993,1405 1993,1405 1993,1404 1993,1403 1993,1403 1993,1402 1993,1402 1993,1401 1993,1400 1993,1400 1993,1399 1993,1399 1993,1398 1993,1397 1993,1397 1993,1396 1993,1396 1993,1395 1993,1395 1993,1394 1993,1394 1993,1393 1993,1393 1993,1392 1993,1392 1993,1391 1993,1391 1993,1390 1993,1390 1993,1390 1993,1389 1993,1389 1993,1388 1993,1388 1993,1388 1993,1387 1993,1387 1993,1387 1993,1386 1993,1386 1993,1386 1993,1385 1993,1385 1993,1385 1993,1384 1993,1384 1993,1384 1993,1384 1993,1383 1993,1383 1993,1383 1993,1383 1993,1383 1993,1382 1993,1382 1993,1382 1993,1382 1993,1382 1993,1382 1993,1382 1993,1382 1993,1381 1993,1381 1993,1381 1993,1381 1993,1381 1993,1381 1993,1381 1993,1381 1993,1381 1993,1381 1993,1381 1993,1381 1993,1381 1993,1381 1993,1381 1993,1382 1993,1382 1993,1382 1993,1382 1993,1382 1993,1382 1993,1382 1993,1382 1993,1383 1993,1383 1993,1383 1993,1383 1993,1383 1993,1384 1993,1384 1993,1384 1993,1384 1993,1384 1993,1385 1993,1385 1993,1385 1993,1386 1993,1386 1993,1386 1993,1387 1993,1387 1993,1387 1993,1388 1993,1388 1993,1388 1993,1389 1993,1389 1993,1390 1993,1390 1993,1390 1993,1391 1993,1391 1993,1392 1993,1392 1993,1393 1993,1393 1993,1394 1993,1394 1993,1395 1993,1395 1993,1396 1993,1396 1993,1397 1993,1397 1993,1398 1993,1398 1993,1399 1993,1399 1993,1400 1993,1401 1993,1401 1993,1402 1993,1402 1993,1403 1993,1404 1993,1404 1993,1405 1993,1405 1993,1406 1993,1407 1993,1407 1993,1408 1993,1409 1993,1409 1993,1410 1993,1411 1993,1411 1993,1412 1993,1413 1993,1413 1993,1414 1993,1415 1993,1415 1993,1416 1993,1417 1993,1418 1993,1418 1993,1419 1993,1420 1993,1420 1993,1421 1993,1422 1993,1423 1993,1423 1993,1424 1993,1425 1993,1425 1993,1426 1993,1427 1993,1428 1993,1428 1993,1429 1993,1430 1993,1431 1993,1431 1993,1432 1993,1433 1993,1433 1993,1433 1993,1432 1993,1431 1993,1431 1993,1430 1993,1429 1993,1428 1993,1428 1993,1427 1993,1426 1993,1426 1993,1425 1993,1424 1993,1423 1993,1423 1993,1422 1993,1421 1993,1421 1993,1420 1993,1419 1993,1419 1993,1418 1993,1417 1993,1416 1993,1416 1993,1415 1993,1414 1993,1414 1993,1413 1993,1412 1993,1412 1993,1411 1993,1411 1993,1410 1993,1409 1993,1409 1993,1408 1993,1407 1993,1407 1993,1406 1993,1406 1993,1405 1993,1404 1993,1404 1993,1403 1993,1403 1993,1402 1993,1402 1993,1401 1993,1401 1993,1400 1993,1400 1993,1399 1993,1399 1993,1398 1993,1398 1993,1397 1993,1397 1993,1396 1993,1396 1993,1395 1993,1395 1993,1394 1993,1394 1993,1394 1993,1393 1993,1393 1993,1392 1993,1392 1993,1392 1993,1391 1993,1391 1993,1391 1993,1390 1993,1390 1993,1390 1993,1389 1993,1389 1993,1389 1993,1388 1993,1388 1993,1388 1993,1388 1993,1387 1993,1387 1993,1387 1993,1387 1993,1387 1993,1386 1993,1386 1993,1386 1993,1386 1993,1386 1993,1386 1993,1386 1993,1385 1993,1385 1993,1385 1993,1385 1993,1385 1993,1385 1993,1385 1993,1385 1993,1385 1993,1385 1993,1385 1993,1385 1993,1385 1993,1385 1993,1385 1993,1385 1993,1385 1993,1385 1993,1385 1993,1385 1993,1385 1993,1385 1993,1386 1993,1386 1993,1386 1993,1386 1993,1386 1993,1386 1993,1386 1993,1387 1993,1387 1993,1387 1993,1387 1993,1387 1993,1388 1993,1388 1993,1388 1993,1388 1993,1389 1993,1389 1993,1389 1993,1390 1993,1390 1993,1390 1993,1390 1993,1391 1993,1391 1993,1391 1993,1392 1993,1392 1993,1393 1993,1393 1993,1393 1993,1394 1993,1394 1993,1395 1993,1395 1993,1395 1993,1396 1993,1396 1993,1397 1993,1397 1993,1398 1993,1398 1993,1399 1993,1399 1993,1400 1993,1400 1993,1401 1993,1401 1993,1402 1993,1402 1993,1403 1993,1403 1993,1404 1993,1404 1993,1405 1993,1406 1993,1406 1993,1407 1993,1407 1993,1408 1993,1409 1993,1409 1993,1410 1993,1410 1993,1411 1993,1412 1993,1412 1993,1413 1993,1414 1993,1414 1993,1415 1993,1415 1993,1416 1993,1417 1993,1417 1993,1418 1993,1419 1993,1419 1993,1420 1993,1421 1993,1421 1993,1422 1993,1423 1993,1423 1993,1424 1993,1425 1993,1425 1993,1426 1993,1427 1993,1428 1993,1428 1993,1429 1993,1430 1993,1430 1993,1431 1993,1432 1993,1432 1993,1433 1993,1433 1993,1433 1993,1432 1993,1431 1993,1430 1993,1430 1993,1429 1993,1428 1993,1428 1993,1427 1993,1426 1993,1426 1993,1425 1993,1424 1993,1424 1993,1423 1993,1422 1993,1422 1993,1421 1993,1420 1993,1420 1993,1419 1993,1418 1993,1418 1993,1417 1993,1416 1993,1416 1993,1415 1993,1415 1993,1414 1993,1413 1993,1413 1993,1412 1993,1411 1993,1411 1993,1410 1993,1410 1993,1409 1993,1409 1993,1408 1993,1407 1993,1407 1993,1406 1993,1406 1993,1405 1993,1405 1993,1404 1993,1404 1993,1403 1993,1403 1993,1402 1993,1401 1993,1401 1993,1401 1993,1400 1993,1400 1993,1399 1993,1399 1993,1398 1993,1398 1993,1397 1993,1397 1993,1396 1993,1396 1993,1396 1993,1395 1993,1395 1993,1395 1993,1394 1993,1394 1993,1393 1993,1393 1993,1393 1993,1392 1993,1392 1993,1392 1993,1391 1993,1391 1993,1391 1993,1391 1993,1390 1993,1390 1993,1390 1993,1390 1993,1389 1993,1389 1993,1389 1993,1389 1993,1389 1993,1388 1993,1388 1993,1388 1993,1388 1993,1388 1993,1388 1993,1388 1993,1387 1993,1387 1993,1387 1993,1387 1993,1387 1993,1387 1993,1387 1993,1387 1993,1387 1993,1387 1993,1387 1993,1387 1993,1387 1993,1387 1993,1387 1993,1387 1993,1387 1993,1387 1993,1387 1993,1387 1993,1387 1993,1387 1993,1387 1993,1388 1993,1388 1993,1388 1993,1388 1993,1388 1993,1388 1993,1388 1993,1389 1993,1389 1993,1389 1993,1389 1993,1389 1993,1390 1993,1390 1993,1390 1993,1390 1993,1391 1993,1391 1993,1391 1993,1392 1993,1392 1993,1392 1993,1393 1993,1393 1993,1393 1993,1394 1993,1394 1993,1394 1993,1395 1993,1395 1993,1395 1993,1396 1993,1396 1993,1397 1993,1397 1993,1397 1993,1398 1993,1398 1993,1399 1993,1399 1993,1400 1993,1400 1993,1401 1993,1401 1993,1402 1993,1402 1993,1403 1993,1403 1993,1404 1993,1404 1993,1405 1993,1405 1993,1406 1993,1406 1993,1407 1993,1407 1993,1408 1993,1408 1993,1409 1993,1410 1993,1410 1993,1411 1993,1411 1993,1412 1993,1413 1993,1413 1993,1414 1993,1414 1993,1415 1993,1416 1993,1416 1993,1417 1993,1418 1993,1418 1993,1419 1993,1419 1993,1420 1993,1421 1993,1421 1993,1422 1993,1423 1993,1423 1993,1424 1993,1425 1993,1425 1993,1426 1993,1427 1993,1427 1993,1428 1993,1429 1993,1429 1993,1430 1993,1431 1993,1431 1993,1432 1993,1433 1993,1433 1993,1433 1993,1432 1993,1432 1993,1431 1993,1430 1993,1430 1993,1429 1993,1428 1993,1428 1993,1427 1993,1426 1993,1426 1993,1425 1993,1424 1993,1424 1993,1423 1993,1422 1993,1422 1993,1421 1993,1420 1993,1420 1993,1419 1993,1418 1993,1418 1993,1417 1993,1417 1993,1416 1993,1415 1993,1415 1993,1414 1993,1414 1993,1413 1993,1412 1993,1412 1993,1411 1993,1411 1993,1410 1993,1409 1993,1409 1993,1408 1993,1408 1993,1407 1993,1407 1993,1406 1993,1406 1993,1405 1993,1404 1993,1404 1993,1403 1993,1403 1993,1402 1993,1402 1993,1401 1993,1401 1993,1401 1993,1400 1993,1400 1993,1399 1993,1399 1993,1398 1993,1398 1993,1397 1993,1397 1993,1397 1993,1396 1993,1396 1993,1395 1993,1395 1993,1395 1993,1394 1993,1394 1993,1394 1993,1393 1993,1393 1993,1393 1993,1392 1993,1392 1993,1392 1993,1392 1993,1391 1993,1391 1993,1391 1993,1391 1993,1390 1993,1390 1993,1390 1993,1390 1993,1389 1993,1389 1993,1389 1993,1389 1993,1389 1993,1389 1993,1388 1993,1388 1993,1388 1993,1388 1993,1388 1993,1388 1993,1388 1993,1388 1993,1388 1993,1388 1993,1388 1993,1388 1993,1388 1993,1388 1993,1388 1993,1388 1993,1388 1993,1388 1993,1388 1993,1388 1993,1388 1993,1388 1993,1388 1993,1388 1993,1388 1993,1388 1993,1388 1993,1388 1993,1388 1993,1389 1993,1389 1993,1389 1993,1389 1993,1389 1993,1389 1993,1390 1993,1390 1993,1390 1993,1390 1993,1391 1993,1391 1993,1391 1993,1391 1993,1392 1993,1392 1993,1392 1993,1392 1993,1393 1993,1393 1993,1393 1993,1394 1993,1394 1993,1394 1993,1395 1993,1395 1993,1395 1993,1396 1993,1396 1993,1397 1993,1397 1993,1397 1993,1398 1993,1398 1993,1399 1993,1399 1993,1400 1993,1400 1993,1401 1993,1401 1993,1401 1993,1402 1993,1402 1993,1403 1993,1403 1993,1404 1993,1404 1993,1405 1993,1406 1993,1406 1993,1407 1993,1407 1993,1408 1993,1408 1993,1409 1993,1409 1993,1410 1993,1411 1993,1411 1993,1412 1993,1412 1993,1413 1993,1414 1993,1414 1993,1415 1993,1415 1993,1416 1993,1417 1993,1417 1993,1418 1993,1418 1993,1419 1993,1420 1993,1420 1993,1421 1993,1422 1993,1422 1993,1423 1993,1424 1993,1424 1993,1425 1993,1426 1993,1426 1993,1427 1993,1428 1993,1428 1993,1429 1993,1430 1993,1430 1993,1431 1993,1432 1993,1432 1993,1433 1993,1433 1993,1433 1993,1432 1993,1431 1993,1431 1993,1430 1993,1429 1993,1429 1993,1428 1993,1427 1993,1427 1993,1426 1993,1425 1993,1425 1993,1424 1993,1423 1993,1423 1993,1422 1993,1421 1993,1421 1993,1420 1993,1419 1993,1419 1993,1418 1993,1418 1993,1417 1993,1416 1993,1416 1993,1415 1993,1414 1993,1414 1993,1413 1993,1413 1993,1412 1993,1411 1993,1411 1993,1410 1993,1410 1993,1409 1993,1408 1993,1408 1993,1407 1993,1407 1993,1406 1993,1406 1993,1405 1993,1405 1993,1404 1993,1404 1993,1403 1993,1403 1993,1402 1993,1402 1993,1401 1993,1401 1993,1400 1993,1400 1993,1399 1993,1399 1993,1398 1993,1398 1993,1397 1993,1397 1993,1397 1993,1396 1993,1396 1993,1395 1993,1395 1993,1395 1993,1394 1993,1394 1993,1394 1993,1393 1993,1393 1993,1393 1993,1392 1993,1392 1993,1392 1993,1391 1993,1391 1993,1391 1993,1390 1993,1390 1993,1390 1993,1390 1993,1389 1993,1389 1993,1389 1993,1389 1993,1389 1993,1388 1993,1388 1993,1388 1993,1388 1993,1388 1993,1388 1993,1388 1993,1387 1993,1387 1993,1387 1993,1387 1993,1387 1993,1387 1993,1387 1993,1387 1993,1387 1993,1387 1993,1387 1993,1387 1993,1387 1993,1387 1993,1387 1993,1387 1993,1387 1993,1387 1993,1387 1993,1387 1993,1387 1993,1387 1993,1387 1993,1388 1993,1388 1993,1388 1993,1388 1993,1388 1993,1388 1993,1388 1993,1389 1993,1389 1993,1389 1993,1389 1993,1389 1993,1390 1993,1390 1993,1390 1993,1390 1993,1391 1993,1391 1993,1391 1993,1391 1993,1392 1993,1392 1993,1392 1993,1393 1993,1393 1993,1393 1993,1394 1993,1394 1993,1395 1993,1395 1993,1395 1993,1396 1993,1396 1993,1396 1993,1397 1993,1397 1993,1398 1993,1398 1993,1399 1993,1399 1993,1400 1993,1400 1993,1401 1993,1401 1993,1401 1993,1402 1993,1403 1993,1403 1993,1404 1993,1404 1993,1405 1993,1405 1993,1406 1993,1406 1993,1407 1993,1407 1993,1408 1993,1409 1993,1409 1993,1410 1993,1410 1993,1411 1993,1411 1993,1412 1993,1413 1993,1413 1993,1414 1993,1415 1993,1415 1993,1416 1993,1416 1993,1417 1993,1418 1993,1418 1993,1419 1993,1420 1993,1420 1993,1421 1993,1422 1993,1422 1993,1423 1993,1424 1993,1424 1993,1425 1993,1426 1993,1426 1993,1427 1993,1428 1993,1428 1993,1429 1993,1430 1993,1430 1993,1431 1993,1432 1993,1433 1993,1433 1993,1433 1993,1432 1993,1432 1993,1431 1993,1430 1993,1430 1993,1429 1993,1428 1993,1428 1993,1427 1993,1426 1993,1425 1993,1425 1993,1424 1993,1423 1993,1423 1993,1422 1993,1421 1993,1421 1993,1420 1993,1419 1993,1419 1993,1418 1993,1417 1993,1417 1993,1416 1993,1415 1993,1415 1993,1414 1993,1414 1993,1413 1993,1412 1993,1412 1993,1411 1993,1410 1993,1410 1993,1409 1993,1409 1993,1408 1993,1407 1993,1407 1993,1406 1993,1406 1993,1405 1993,1404 1993,1404 1993,1403 1993,1403 1993,1402 1993,1402 1993,1401 1993,1401 1993,1400 1993,1400 1993,1399 1993,1399 1993,1398 1993,1398 1993,1397 1993,1397 1993,1396 1993,1396 1993,1395 1993,1395 1993,1395 1993,1394 1993,1394 1993,1393 1993,1393 1993,1393 1993,1392 1993,1392 1993,1391 1993,1391 1993,1391 1993,1390 1993,1390 1993,1390 1993,1390 1993,1389 1993,1389 1993,1389 1993,1388 1993,1388 1993,1388 1993,1388 1993,1387 1993,1387 1993,1387 1993,1387 1993,1387 1993,1386 1993,1386 1993,1386 1993,1386 1993,1386 1993,1386 1993,1386 1993,1385 1993,1385 1993,1385 1993,1385 1993,1385 1993,1385 1993,1385 1993,1385 1993,1385 1993,1385 1993,1385 1993,1385 1993,1385 1993,1385 1993,1385 1993,1385 1993,1385 1993,1385 1993,1385 1993,1385 1993,1385 1993,1385 1993,1386 1993,1386 1993,1386 1993,1386 1993,1386 1993,1386 1993,1386 1993,1387 1993,1387 1993,1387 1993,1387 1993,1387 1993,1388 1993,1388 1993,1388 1993,1388 1993,1389 1993,1389 1993,1389 1993,1390 1993,1390 1993,1390 1993,1391 1993,1391 1993,1391 1993,1392 1993,1392 1993,1392 1993,1393 1993,1393 1993,1394 1993,1394 1993,1394 1993,1395 1993,1395 1993,1396 1993,1396 1993,1397 1993,1397 1993,1398 1993,1398 1993,1399 1993,1399 1993,1400 1993,1400 1993,1401 1993,1401 1993,1402 1993,1402 1993,1403 1993,1403 1993,1404 1993,1404 1993,1405 1993,1406 1993,1406 1993,1407 1993,1407 1993,1408 1993,1409 1993,1409 1993,1410 1993,1411 1993,1411 1993,1412 1993,1412 1993,1413 1993,1414 1993,1414 1993,1415 1993,1416 1993,1416 1993,1417 1993,1418 1993,1419 1993,1419 1993,1420 1993,1421 1993,1421 1993,1422 1993,1423 1993,1423 1993,1424 1993,1425 1993,1426 1993,1426 1993,1427 1993,1428 1993,1428 1993,1429 1993,1430 1993,1431 1993,1431 1993,1432 1993,1433 1993,1433 1993,1433 1993,1432 1993,1431 1993,1431 1993,1430 1993,1429 1993,1428 1993,1428 1993,1427 1993,1426 1993,1425 1993,1425 1993,1424 1993,1423 1993,1423 1993,1422 1993,1421 1993,1420 1993,1420 1993,1419 1993,1418 1993,1418 1993,1417 1993,1416 1993,1415 1993,1415 1993,1414 1993,1413 1993,1413 1993,1412 1993,1411 1993,1411 1993,1410 1993,1409 1993,1409 1993,1408 1993,1407 1993,1407 1993,1406 1993,1405 1993,1405 1993,1404 1993,1404 1993,1403 1993,1402 1993,1402 1993,1401 1993,1401 1993,1400 1993,1399 1993,1399 1993,1398 1993,1398 1993,1397 1993,1397 1993,1396 1993,1396 1993,1395 1993,1395 1993,1394 1993,1394 1993,1393 1993,1393 1993,1392 1993,1392 1993,1391 1993,1391 1993,1390 1993,1390 1993,1390 1993,1389 1993,1389 1993,1388 1993,1388 1993,1388 1993,1387 1993,1387 1993,1387 1993,1386 1993,1386 1993,1386 1993,1385 1993,1385 1993,1385 1993,1384 1993,1384 1993,1384 1993,1384 1993,1384 1993,1383 1993,1383 1993,1383 1993,1383 1993,1383 1993,1382 1993,1382 1993,1382 1993,1382 1993,1382 1993,1382 1993,1382 1993,1382 1993,1381 1993,1381 1993,1381 1993,1381 1993,1381 1993,1381 1993,1381 1993,1381 1993,1381 1993,1381 1993,1381 1993,1381 1993,1381 1993,1381 1993,1381 1993,1382 1993,1382 1993,1382 1993,1382 1993,1382 1993,1382 1993,1382 1993,1382 1993,1383 1993,1383 1993,1383 1993,1383 1993,1383 1993,1384 1993,1384 1993,1384 1993,1384 1993,1385 1993,1385 1993,1385 1993,1386 1993,1386 1993,1386 1993,1387 1993,1387 1993,1387 1993,1388 1993,1388 1993,1388 1993,1389 1993,1389 1993,1390 1993,1390 1993,1390 1993,1391 1993,1391 1993,1392 1993,1392 1993,1393 1993,1393 1993,1394 1993,1394 1993,1395 1993,1395 1993,1396 1993,1396 1993,1397 1993,1397 1993,1398 1993,1399 1993,1399 1993,1400 1993,1400 1993,1401 1993,1402 1993,1402 1993,1403 1993,1403 1993,1404 1993,1405 1993,1405 1993,1406 1993,1407 1993,1407 1993,1408 1993,1409 1993,1410 1993,1410 1993,1411 1993,1412 1993,1412 1993,1413 1993,1414 1993,1415 1993,1415 1993,1416 1993,1417 1993,1417 1993,1418 1993,1419 1993,1420 1993,1421 1993,1421 1993,1422 1993,1423 1993,1424 1993,1424 1993,1425 1993,1426 1993,1427 1993,1428 1993,1428 1993,1429 1993,1430 1993,1431 1993,1431 1993,1432 1993,1433 1993,1433 1993,1432 1993,1432 1993,1431 1993,1430 1993,1429 1993,1428 1993,1428 1993,1427 1993,1426 1993,1425 1993,1424 1993,1424 1993,1423 1993,1422 1993,1421 1993,1420 1993,1420 1993,1419 1993,1418 1993,1417 1993,1416 1993,1416 1993,1415 1993,1414 1993,1413 1993,1413 1993,1412 1993,1411 1993,1410 1993,1410 1993,1409 1993,1408 1993,1407 1993,1407 1993,1406 1993,1405 1993,1404 1993,1404 1993,1403 1993,1402 1993,1402 1993,1401 1993,1400 1993,1400 1993,1399 1993,1398 1993,1398 1993,1397 1993,1396 1993,1396 1993,1395 1993,1394 1993,1394 1993,1393 1993,1393 1993,1392 1993,1391 1993,1391 1993,1390 1993,1390 1993,1389 1993,1389 1993,1388 1993,1388 1993,1387 1993,1387 1993,1386 1993,1386 1993,1385 1993,1385 1993,1384 1993,1384 1993,1383 1993,1383 1993,1383 1993,1382 1993,1382 1993,1381 1993,1381 1993,1381 1993,1380 1993,1380 1993,1380 1993,1379 1993,1379 1993,1379 1993,1378 1993,1378 1993,1378 1993,1378 1993,1377 1993,1377 1993,1377 1993,1377 1993,1377 1993,1376 1993,1376 1993,1376 1993,1376 1993,1376 1993,1376 1993,1376 1993,1375 1993,1375 1993,1375 1993,1375 1993,1375 1993,1375 1993,1375 1993,1375 1993,1375 1993,1375 1993,1375 1993,1375 1993,1375 1993,1375 1993,1375 1993,1376 1993,1376 1993,1376 1993,1376 1993,1376 1993,1376 1993,1376 1993,1377 1993,1377 1993,1377 1993,1377 1993,1377 1993,1378 1993,1378 1993,1378 1993,1378 1993,1379 1993,1379 1993,1379 1993,1380 1993,1380 1993,1380 1993,1381 1993,1381 1993,1381 1993,1382 1993,1382 1993,1383 1993,1383 1993,1383 1993,1384 1993,1384 1993,1385 1993,1385 1993,1386 1993,1386 1993,1387 1993,1387 1993,1388 1993,1388 1993,1389 1993,1390 1993,1390 1993,1391 1993,1391 1993,1392 1993,1393 1993,1393 1993,1394 1993,1394 1993,1395 1993,1396 1993,1396 1993,1397 1993,1398 1993,1399 1993,1399 1993,1400 1993,1401 1993,1401 1993,1402 1993,1403 1993,1404 1993,1404 1993,1405 1993,1406 1993,1407 1993,1407 1993,1408 1993,1409 1993,1410 1993,1411 1993,1412 1993,1412 1993,1413 1993,1414 1993,1415 1993,1416 1993,1417 1993,1417 1993,1418 1993,1419 1993,1420 1993,1421 1993,1422 1993,1423 1993,1424 1993,1424 1993,1425 1993,1426 1993,1427 1993,1428 1993,1429 1993,1430 1993,1431 1993,1432 1993,1432 1993,1433 1993,1433 1993,1432 1993,1431 1993,1430 1993,1429 1993,1428 1993,1427 1993,1426 1993,1425 1993,1424 1993,1424 1993,1423 1993,1422 1993,1421 1993,1420 1993,1419 1993,1418 1993,1417 1993,1416 1993,1415 1993,1414 1993,1414 1993,1413 1993,1412 1993,1411 1993,1410 1993,1409 1993,1408 1993,1407 1993,1407 1993,1406 1993,1405 1993,1404 1993,1403 1993,1402 1993,1401 1993,1401 1993,1400 1993,1399 1993,1398 1993,1397 1993,1397 1993,1396 1993,1395 1993,1394 1993,1393 1993,1393 1993,1392 1993,1391 1993,1390 1993,1390 1993,1389 1993,1388 1993,1388 1993,1387 1993,1386 1993,1385 1993,1385 1993,1384 1993,1383 1993,1383 1993,1382 1993,1382 1993,1381 1993,1380 1993,1380 1993,1379 1993,1379 1993,1378 1993,1377 1993,1377 1993,1376 1993,1376 1993,1375 1993,1375 1993,1374 1993,1374 1993,1373 1993,1373 1993,1373 1993,1372 1993,1372 1993,1371 1993,1371 1993,1371 1993,1370 1993,1370 1993,1369 1993,1369 1993,1369 1993,1369 1993,1368 1993,1368 1993,1368 1993,1367 1993,1367 1993,1367 1993,1367 1993,1367 1993,1366 1993,1366 1993,1366 1993,1366 1993,1366 1993,1366 1993,1366 1993,1366 1993,1366 1993,1366 1993,1365 1993,1365 1993,1365 1993,1365 1993,1366 1993,1366 1993,1366 1993,1366 1993,1366 1993,1366 1993,1366 1993,1366 1993,1366 1993,1366 1993,1367 1993,1367 1993,1367 1993,1367 1993,1367 1993,1368 1993,1368 1993,1368 1993,1368 1993,1369 1993,1369 1993,1369 1993,1370 1993,1370 1993,1370 1993,1371 1993,1371 1993,1372 1993,1372 1993,1372 1993,1373 1993,1373 1993,1374 1993,1374 1993,1375 1993,1375 1993,1376 1993,1376 1993,1377 1993,1378 1993,1378 1993,1379 1993,1379 1993,1380 1993,1381 1993,1381 1993,1382 1993,1383 1993,1383 1993,1384 1993,1385 1993,1385 1993,1386 1993,1387 1993,1388 1993,1388 1993,1389 1993,1390 1993,1391 1993,1392 1993,1392 1993,1393 1993,1394 1993,1395 1993,1396 1993,1397 1993,1398 1993,1398 1993,1399 1993,1400 1993,1401 1993,1402 1993,1403 1993,1404 1993,1405 1993,1406 1993,1407 1993,1408 1993,1409 1993,1410 1993,1411 1993,1412 1993,1413 1993,1414 1993,1415 1993,1416 1993,1417 1993,1418 1993,1419 1993,1420 1993,1421 1993,1422 1993,1423 1993,1424 1993,1425 1993,1426 1993,1427 1993,1428 1993,1429 1993,1431 1993,1432 1993,1433 1993,1433 1993,1432 1993,1431 1993,1430 1993,1429 1993,1428 1993,1427 1993,1425 1993,1424 1993,1423 1993,1422 1993,1421 1993,1420 1993,1419 1993,1418 1993,1417 1993,1416 1993,1414 1993,1413 1993,1412 1993,1411 1993,1410 1993,1409 1993,1408 1993,1407 1993,1406 1993,1405 1993,1404 1993,1403 1993,1402 1993,1400 1993,1399 1993,1398 1993,1397 1993,1396 1993,1395 1993,1394 1993,1393 1993,1392 1993,1391 1993,1390 1993,1389 1993,1388 1993,1387 1993,1386 1993,1385 1993,1384 1993,1383 1993,1383 1993,1382 1993,1381 1993,1380 1993,1379 1993,1378 1993,1377 1993,1376 1993,1375 1993,1375 1993,1374 1993,1373 1993,1372 1993,1371 1993,1371 1993,1370 1993,1369 1993,1368 1993,1367 1993,1367 1993,1366 1993,1365 1993,1365 1993,1364 1993,1363 1993,1363 1993,1362 1993,1361 1993,1361 1993,1360 1993,1360 1993,1359 1993,1358 1993,1358 1993,1357 1993,1357 1993,1356 1993,1356 1993,1355 1993,1355 1993,1355 1993,1354 1993,1354 1993,1353 1993,1353 1993,1353 1993,1352 1993,1352 1993,1352 1993,1351 1993,1351 1993,1351 1993,1351 1993,1350 1993,1350 1993,1350 1993,1350 1993,1350 1993,1350 1993,1349 1993,1349 1993,1349 1993,1349 1993,1349 1993,1349 1993,1349 1993,1349 1993,1349 1993,1349 1993,1349 1993,1349 1993,1349 1993,1350 1993,1350 1993,1350 1993,1350 1993,1350 1993,1350 1993,1351 1993,1351 1993,1351 1993,1351 1993,1352 1993,1352 1993,1352 1993,1353 1993,1353 1993,1353 1993,1354 1993,1354 1993,1355 1993,1355 1993,1356 1993,1356 1993,1357 1993,1357 1993,1358 1993,1358 1993,1359 1993,1360 1993,1360 1993,1361 1993,1361 1993,1362 1993,1363 1993,1363 1993,1364 1993,1365 1993,1366 1993,1366 1993,1367 1993,1368 1993,1369 1993,1370 1993,1370 1993,1371 1993,1372 1993,1373 1993,1374 1993,1375 1993,1376 1993,1377 1993,1378 1993,1379 1993,1380 1993,1381 1993,1382 1993,1383 1993,1384 1993,1385 1993,1386 1993,1387 1993,1388 1993,1389 1993,1390 1993,1392 1993,1393 1993,1394 1993,1395 1993,1396 1993,1397 1993,1399 1993,1400 1993,1401 1993,1402 1993,1404 1993,1405 1993,1406 1993,1407 1993,1409 1993,1410 1993,1411 1993,1413 1993,1414 1993,1415 1993,1417 1993,1418 1993,1419 1993,1421 1993,1422 1993,1423 1993,1425 1993,1426 1993,1428 1993,1429 1993,1430 1993,1432 1993,1433 1993,1432 1993,1431 1993,1430 1993,1428 1993,1427 1993,1425 1993,1424 1993,1423 1993,1421 1993,1420 1993,1418 1993,1417 1993,1415 1993,1414 1993,1412 1993,1411 1993,1410 1993,1408 1993,1407 1993,1405 1993,1404 1993,1402 1993,1401 1993,1400 1993,1398 1993,1397 1993,1395 1993,1394 1993,1393 1993,1391 1993,1390 1993,1388 1993,1387 1993,1386 1993,1384 1993,1383 1993,1381 1993,1380 1993,1379 1993,1377 1993,1376 1993,1375 1993,1373 1993,1372 1993,1371 1993,1370 1993,1368 1993,1367 1993,1366 1993,1365 1993,1363 1993,1362 1993,1361 1993,1360 1993,1358 1993,1357 1993,1356 1993,1355 1993,1354 1993,1353 1993,1352 1993,1350 1993,1349 1993,1348 1993,1347 1993,1346 1993,1345 1993,1344 1993,1343 1993,1342 1993,1341 1993,1340 1993,1339 1993,1338 1993,1338 1993,1337 1993,1336 1993,1335 1993,1334 1993,1333 1993,1333 1993,1332 1993,1331 1993,1330 1993,1330 1993,1329 1993,1328 1993,1328 1993,1327 1993,1326 1993,1326 1993,1325 1993,1325 1993,1324 1993,1324 1993,1323 1993,1323 1993,1322 1993,1322 1993,1321 1993,1321 1993,1321 1993,1320 1993,1320 1993,1320 1993,1319 1993,1319 1993,1319 1993,1319 1993,1319 1993,1318 1993,1318 1993,1318 1993,1318 1993,1318 1993,1318 1993,1318 1993,1318 1993,1318 1993,1318 1993,1318 1993,1319 1993,1319 1993,1319 1993,1319 1993,1319 1993,1320 1993,1320 1993,1320 1993,1320 1993,1321 1993,1321 1993,1322 1993,1322 1993,1322 1993,1323 1993,1323 1993,1324 1993,1325 1993,1325 1993,1326 1993,1326 1993,1327 1993,1328 1993,1328 1993,1329 1993,1330 1993,1331 1993,1331 1993,1332 1993,1333 1993,1334 1993,1335 1993,1336 1993,1337 1993,1338 1993,1339 1993,1340 1993,1341 1993,1342 1993,1343 1993,1344 1993,1345 1993,1346 1993,1348 1993,1349 1993,1350 1993,1351 1993,1353 1993,1354 1993,1355 1993,1357 1993,1358 1993,1359 1993,1361 1993,1362 1993,1364 1993,1365 1993,1367 1993,1368 1993,1370 1993,1371 1993,1373 1993,1374 1993,1376 1993,1378 1993,1379 1993,1381 1993,1383 1993,1384 1993,1386 1993,1388 1993,1389 1993,1391 1993,1393 1993,1395 1993,1397 1993,1398 1993,1400 1993,1402 1993,1404 1993,1406 1993,1408 1993,1410 1993,1412 1993,1414 1993,1416 1993,1418 1993,1420 1993,1422 1993,1424 1993,1426 1993,1428 1993,1430 1993,1432 1993,1433 1993,1431 1993,1429 1993,1427 1993,1425 1993,1423 1993,1421 1993,1419 1993,1416 1993,1414 1993,1412 1993,1410 1993,1408 1993,1406 1993,1404 1993,1401 1993,1399 1993,1397 1993,1395 1993,1393 1993,1391 1993,1388 1993,1386 1993,1384 1993,1382 1993,1380 1993,1378 1993,1375 1993,1373 1993,1371 1993,1369 1993,1367 1993,1365 1993,1362 1993,1360 1993,1358 1993,1356 1993,1354 1993,1352 1993,1350 1993,1347 1993,1345 1993,1343 1993,1341 1993,1339 1993,1337 1993,1335 1993,1333 1993,1331 1993,1329 1993,1327 1993,1325 1993,1323 1993,1321 1993,1319 1993,1317 1993,1315 1993,1313 1993,1311 1993,1309 1993,1308 1993,1306 1993,1304 1993,1302 1993,1300 1993,1298 1993,1297 1993,1295 1993,1293 1993,1292 1993,1290 1993,1288 1993,1287 1993,1285 1993,1283 1993,1282 1993,1280 1993,1279 1993,1277 1993,1276 1993,1274 1993,1273 1993,1272 1993,1270 1993,1269 1993,1268 1993,1266 1993,1265 1993,1264 1993,1263 1993,1261 1993,1260 1993,1259 1993,1258 1993,1257 1993,1256 1993,1255 1993,1254 1993,1253 1993,1252 1993,1251 1993,1251 1993,1250 1993,1249 1993,1248 1993,1248 1993,1247 1993,1246 1993,1246 1993,1245 1993,1245 1993,1244 1993,1244 1993,1244 1993,1243 1993,1243 1993,1243 1993,1242 1993,1242 1993,1242 1993,1242 1993,1242 1993,1242 1993,1242 1993,1242 1993,1242 1993,1242 1993,1242 1993,1243 1993,1243 1993,1243 1993,1243 1993,1244 1993,1244 1993,1245 1993,1245 1993,1246 1993,1246 1993,1247 1993,1248 1993,1248 1993,1249 1993,1250 1993,1251 1993,1252 1993,1253 1993,1254 1993,1255 1993,1256 1993,1257 1993,1258 1993,1259 1993,1261 1993,1262 1993,1263 1993,1265 1993,1266 1993,1268 1993,1269 1993,1271 1993,1272 1993,1274 1993,1276 1993,1278 1993,1279 1993,1281 1993,1283 1993,1285 1993,1287 1993,1289 1993,1291 1993,1293 1993,1296 1993,1298 1993,1300 1993,1303 1993,1305 1993,1307 1993,1310 1993,1312 1993,1315 1993,1317 1993,1320 1993,1323 1993,1326 1993,1328 1993,1331 1993,1334 1993,1337 1993,1340 1993,1343 1993,1346 1993,1349 1993,1352 1993,1355 1993,1359 1993,1362 1993,1365 1993,1369 1993,1372 1993,1375 1993,1379 1993,1382 1993,1386 1993,1390 1993,1393 1993,1397 1993,1401 1993,1404 1993,1408 1993,1412 1993,1416 1993,1420 1993,1424 1993,1428 1993,1432 1993,1431 1993,1427 1993,1423 1993,1419 1993,1414 1993,1410 1993,1406 1993,1402 1993,1397 1993,1393 1993,1388 1993,1384 1993,1379 1993,1375 1993,1370 1993,1366 1993,1361 1993,1356 1993,1352 1993,1347 1993,1342 1993,1338 1993,1333 1993,1328 1993,1323 1993,1318 1993,1313 1993,1308 1993,1303 1993,1298 1993,1293 1993,1288 1993,1283 1993,1278 1993,1273 1993,1268 1993,1263 1993,1258 1993,1252 1993,1247 1993,1242 1993,1237 1993,1231 1993,1226 1993,1221 1993,1215 1993,1210 1993,1205 1993,1199 1993,1194 1993,1189 1993,1183 1993,1178 1993,1172 1993,1167 1993,1161 1993,1156 1993,1150 1993,1145 1993,1139 1993,1134 1993,1128 1993,1123 1993,1117 1993,1112 1993,1106 1993,1101 1993,1095 1993,1090 1993,1084 1993,1078 1993,1073 1993,1067 1993,1062 1993,1056 1993,1051 1993,1045 1993,1040 1993,1034 1993,1029 1993,1023 1993,1017 1993,1012 1993,1006 1993,1001 1993,995 1993,990 1993,984 1993,979 1993,973 1993,968 1993,963 1993,957 1993,952 1993,946 1993,941 1993,936 1993,930 1993,925 1993,919 1993,914 1993,909 1993,904 1993,898 1993,893 1993,888 1993,883 1993,878 1993,872 1993,867 1993,862 1993,857 1993,852 1993,847 1993,842 1993,837 1993,832 1993,827 1993,822 1993,817 1993,813 1993,808 1993,803 1993,798 1993,794 1993,789 1993,784 1993,780 1993,775 1993,771 1993,766 1993,762 1993,757 1993,753 1993,748 1993,744 1993,740 1993,736 1993,731 1993,727 1993,723 1993,719 1993,715 1993,711 1993,707 1993,703 1993,699 1993,695 1993,692 1993,688 1993,684 1993,681 1993,677 1993,673 1993,670 1993,666 1993,663 1993,660 1993,656 1993,653 1993,650 1993,647 1993,644 1993,641 1993,638 1993,635 1993,632 1993,629 1993,626 1993,623 1993,621 1993,618 1993,615 1993,613 1993,610 1993,608 1993,606 1993,603 1993,601 1993,599 1993,597 1993,595 1993,593 1993,591 1993,589 1993,587 1993,585 1993,583 1993,582 1993,580 1993,579 1993,577 1993,576 1993,574 1993,573 1993,572 1993,571 1993,569 1993,568 1993,567 1993,566 1993,566 1993,565 1993,564 1993,563 1993,563 1993,562 1993,561 1993,561 1993,561 1993,560 1993,560 1993,560 1993,560 1993,560 "/>
</svg>
